<svg xmlns="http://www.w3.org/2000/svg" width="256" height="256"><path fill="#1976D2" fill-opacity=".11" fill-rule="evenodd" d="M0 128.004v128.004l128.25-.254 128.25-.254.254-127.75L257.008 0H0zm.485.496c0 70.4.119 99.053.265 63.672s.146-92.98 0-128S.485 58.1.485 128.5"/><path fill="#1976D2" fill-opacity=".224" fill-rule="evenodd" d="M0 128.004v128.004l128.25-.254 128.25-.254.254-127.75L257.008 0H0zm.485.496c0 70.4.119 99.053.265 63.672s.146-92.98 0-128S.485 58.1.485 128.5M112.5 71.87c-19.882 5.723-35.809 21.985-40.915 41.774-.872 3.38-1.585 7.992-1.585 10.25V128h9.722l.539-5.75c.755-8.043 4.14-16.347 9.589-23.522 15.218-20.037 43.94-24.733 65.052-10.635C160.25 91.665 168 99.51 168 101.353c0 .356-2.925.647-6.5.647H155v10h31V80h-10v13.793l-6.75-6.684c-7.519-7.444-17.169-13.015-26.894-15.524-8.046-2.075-22.123-1.941-29.856.285m10.464 22.38c-.032 2.812-.598 3.52-4.198 5.25-5.148 2.474-7.747 5.936-8.463 11.276-1.254 9.355 2.133 13.5 15.712 19.23C136.302 134.347 140 137.386 140 141.5c0 3.226-3.491 7.177-7.516 8.505-5.937 1.96-11.438-.923-15.984-8.377-.862-1.413-1.525-1.475-4.812-.447-3.41 1.067-3.744 1.462-3.172 3.756 1.041 4.172 5.369 9.033 10.081 11.322 3.883 1.887 4.403 2.53 4.403 5.44 0 3.294.01 3.301 5 3.301h5v-3.392c0-2.866.425-3.497 2.75-4.078 8.021-2.002 12.25-7.719 12.25-16.563 0-9.355-2.97-12.075-22.245-20.377-6.683-2.879-8.804-5.991-6.913-10.142 1.495-3.282 7.437-5.806 11.759-4.995 1.926.361 4.362 1.903 5.904 3.735 2.621 3.116 2.63 3.118 6.06 1.482 1.889-.901 3.435-2.079 3.435-2.619 0-1.997-6.247-8.011-9.569-9.212-2.964-1.072-3.431-1.69-3.431-4.54 0-3.292-.01-3.299-5-3.299-4.967 0-5 .021-5.036 3.25m52.775 39.5c-.755 8.043-4.14 16.347-9.589 23.522-15.218 20.037-43.94 24.733-65.052 10.635C95.75 164.335 88 156.49 88 154.647c0-.356 2.925-.647 6.5-.647h6.5v-10H70v32h10v-13.793l6.75 6.684c23.136 22.908 59.461 22.973 82.287.146 9.878-9.878 16.963-25.303 16.963-36.931V128h-9.722z"/><path fill="#1976D2" fill-opacity=".256" fill-rule="evenodd" d="M0 128.004v128.004l128.25-.254 128.25-.254.254-127.75L257.008 0H0zm.485.496c0 70.4.119 99.053.265 63.672s.146-92.98 0-128S.485 58.1.485 128.5M120.5 69.637c-27.376 4.187-47.506 25.141-51.027 53.113l-.661 5.25h10.745l1.09-6.92c4.379-27.808 32.089-46.509 58.66-39.588 8.504 2.215 15.389 6.076 21.889 12.276 3.192 3.045 5.804 5.918 5.804 6.384s-2.7.848-6 .848h-6v11h32V80h-11v13.254l-7.474-7.099C157.28 75.472 145.861 70.42 131.107 69.6c-4.184-.232-8.957-.216-10.607.037m2.5 24.35c0 2.443-.61 3.241-3.357 4.389-7.353 3.072-11.628 11.253-9.673 18.511 1.529 5.678 6.18 9.609 15.787 13.341 10.341 4.018 13.243 6.453 13.243 11.113 0 5.206-2.7 7.837-8.564 8.344-6.092.526-10.319-1.811-12.824-7.09-.95-2.003-2.039-3.454-2.42-3.226s-2.399 1.124-4.485 1.99l-3.793 1.575 1.657 3.283c2.318 4.591 6.277 8.631 10.679 10.895 3.063 1.575 3.75 2.475 3.75 4.908 0 2.904.126 2.98 4.937 2.98 4.816 0 4.944-.078 5.25-3.184.249-2.529.892-3.338 3.128-3.931 7.917-2.1 13.577-10.906 12.269-19.087-1.26-7.879-6.568-12.492-19.488-16.937-3.025-1.041-6.535-2.864-7.798-4.051-5.31-4.989-1.015-11.81 7.436-11.81 3.705 0 4.957.528 7.367 3.108 3.044 3.259 5.416 3.429 9.203.66 1.705-1.248 1.642-1.542-1.148-5.394-1.819-2.511-4.527-4.705-7.054-5.717-3.53-1.412-4.102-2.06-4.102-4.649 0-2.943-.108-3.008-5-3.008-4.884 0-5 .069-5 2.987m52.353 40.933c-4.379 27.808-32.089 46.509-58.66 39.588-8.504-2.215-15.389-6.076-21.889-12.276-3.192-3.045-5.804-5.918-5.804-6.384s2.7-.848 6-.848h6v-11H69v32h11v-13.254l7.474 7.099c12.198 11.587 24.336 16.542 40.526 16.542 30.5 0 54.592-21.874 58.527-53.137l.661-5.25h-10.745z"/><path fill="#1976D2" fill-opacity=".382" fill-rule="evenodd" d="M0 128.004v128.004l128.25-.254 128.25-.254.254-127.75L257.008 0H0zm.485.496c0 70.4.119 99.053.265 63.672s.146-92.98 0-128S.485 58.1.485 128.5m112.717-57.478c-4.014 1.052-10.089 3.387-13.5 5.19-8.011 4.234-19.252 15.471-23.482 23.474-3.497 6.617-7.22 19.495-7.22 24.974V128h10.909l.598-3.75c2.684-16.833 9.1-27.812 20.785-35.568 19.714-13.086 47.414-9.673 62.286 7.673l3.553 4.145-6.565.296-6.566.295V112h33V80h-11v12.739l-6.756-6.619c-14.977-14.677-36.016-20.344-56.042-15.098m9.51 19.6c-.392.391-.712 1.965-.712 3.498 0 2.205-.735 3.135-3.527 4.46-4.295 2.038-7.103 5.452-8.603 10.459-2.872 9.585 2.347 16.513 16.45 21.835 9.273 3.501 12.68 6.479 12.68 11.087 0 7.394-11.871 10.411-17.971 4.567-1.706-1.635-3.36-3.998-3.674-5.25-.315-1.253-.845-2.278-1.18-2.278-2.097 0-9.175 3.489-9.175 4.523 0 2.885 6.663 10.962 10.666 12.93 3.546 1.743 4.215 2.567 4.5 5.547l.334 3.5h5.5c5.439 0 5.503-.035 5.806-3.152.237-2.439 1.001-3.44 3.383-4.426 7.54-3.124 11.811-9.061 11.811-16.422 0-9.451-5.897-15.418-19.693-19.926-9.598-3.136-12.584-7.54-8.518-12.562 1.218-1.504 3.286-2.379 6.473-2.738 4.344-.49 4.941-.271 8.225 3.013l3.541 3.541 3.986-1.566c2.192-.861 3.986-2.091 3.986-2.734 0-2.014-6.781-9.195-9.904-10.488-2.287-.947-3.055-1.973-3.29-4.388-.294-3.033-.497-3.163-5.344-3.447-2.772-.162-5.359.025-5.75.417m52.781 41.128c-2.684 16.833-9.1 27.812-20.785 35.568-19.714 13.086-47.414 9.673-62.286-7.673l-3.553-4.145 6.565-.296 6.566-.295V144H69v32h11v-12.739l6.756 6.619c7.935 7.776 16.147 12.41 26.84 15.145 14.137 3.615 29.529 1.725 42.718-5.245 7.995-4.226 19.24-15.471 23.466-23.466 3.497-6.617 7.22-19.495 7.22-24.974V128h-10.909z"/></svg>